<?xml version="1.0" standalone="no"?>
<!DOCTYPE svg PUBLIC "-//W3C//DTD SVG 20010904//EN"
 "http://www.w3.org/TR/2001/REC-SVG-20010904/DTD/svg10.dtd">
<svg version="1.0" xmlns="http://www.w3.org/2000/svg"
 width="800.000000pt" height="800.000000pt" viewBox="0 0 800.000000 800.000000"
 preserveAspectRatio="xMidYMid meet">

<g transform="translate(0.000000,800.000000) scale(0.100000,-0.100000)"
fill="#000000" stroke="none">
<path d="M0 4000 l0 -4000 4000 0 4000 0 0 4000 0 4000 -4000 0 -4000 0 0
-4000z m3885 1396 l341 -98 154 -426 c174 -483 180 -500 400 -1154 88 -262
160 -483 160 -490 0 -8 -29 -79 -64 -159 -35 -79 -96 -216 -134 -304 -39 -88
-82 -182 -95 -208 l-23 -49 -133 349 c-259 675 -323 846 -646 1713 -180 481
-329 888 -332 904 -5 25 -4 28 13 24 10 -3 172 -49 359 -102z m-429 57 c8 -21
26 -67 39 -103 13 -36 51 -141 85 -235 34 -93 66 -181 70 -195 9 -26 51 -143
143 -395 194 -528 277 -762 277 -775 0 -8 -71 -78 -158 -156 -595 -532 -1061
-950 -1144 -1026 -53 -49 -99 -84 -103 -79 -5 9 -77 203 -180 486 -18 50 -82
228 -144 396 -61 168 -111 310 -110 315 1 9 622 567 636 571 4 2 35 -72 68
-162 33 -91 65 -165 70 -165 6 0 33 23 62 51 l52 50 -18 47 c-10 26 -63 169
-116 317 -54 149 -102 274 -106 279 -7 8 -263 -17 -419 -40 l-35 -5 -66 108
c-223 364 -329 544 -329 558 0 9 9 15 23 16 12 0 324 40 692 89 369 48 676 88
682 89 7 1 20 -16 29 -36z m2464 7 c0 -5 -21 -56 -46 -112 -26 -57 -66 -148
-90 -204 -23 -55 -77 -179 -119 -275 -42 -96 -117 -266 -167 -379 -50 -113
-105 -239 -123 -280 -56 -125 -284 -648 -337 -770 -27 -63 -54 -123 -60 -134
-9 -16 -38 60 -164 434 -85 249 -154 459 -154 466 0 7 56 144 125 305 69 161
124 293 122 295 -1 2 -49 -13 -107 -31 -57 -19 -106 -33 -108 -31 -3 4 110
386 146 491 l17 50 150 27 c83 15 294 52 470 81 176 30 345 59 375 65 30 5 58
10 63 11 4 0 7 -3 7 -9z"/>
<path d="M2844 5210 c-247 -31 -455 -59 -462 -61 -10 -4 137 -262 166 -291 6
-6 77 -1 214 16 112 14 214 26 226 26 26 0 22 9 107 -230 55 -155 88 -246 181
-502 13 -38 35 -99 49 -138 l25 -69 -48 -44 c-170 -158 -386 -346 -392 -342
-4 3 -33 77 -65 165 -32 88 -62 160 -67 160 -5 0 -75 -59 -156 -132 -81 -73
-149 -133 -151 -135 -7 -5 271 -779 284 -791 3 -3 18 6 33 20 93 86 1013 907
1031 920 l23 16 -30 89 c-31 87 -90 254 -139 388 -14 39 -31 88 -38 110 -7 22
-50 141 -95 265 -44 124 -94 263 -110 310 -85 246 -108 305 -121 306 -8 1
-217 -24 -465 -56z"/>
</g>
</svg>
